CalSansText-Bold.ufo
<glyph name="dollar" format="2">
  <advance width="580.0"/>
  <unicode hex="0024"/>
  <anchor x="304.0" y="653.0" name="_TopCurrency"/>
  <outline>
    <contour>
      <point x="295.0" y="27.0" type="curve" smooth="yes"/>
      <point x="454.0" y="27.0"/>
      <point x="551.0" y="103.0"/>
      <point x="551.0" y="230.0" type="curve" smooth="yes"/>
      <point x="551.0" y="490.0"/>
      <point x="222.0" y="359.0"/>
      <point x="222.0" y="488.0" type="curve" smooth="yes"/>
      <point x="222.0" y="516.0"/>
      <point x="252.0" y="539.0"/>
      <point x="306.0" y="539.0" type="curve" smooth="yes"/>
      <point x="367.0" y="539.0"/>
      <point x="400.0" y="516.0"/>
      <point x="431.0" y="464.0" type="curve"/>
      <point x="547.0" y="544.0" type="line"/>
      <point x="491.0" y="623.0"/>
      <point x="429.0" y="672.0"/>
      <point x="320.0" y="672.0" type="curve" smooth="yes"/>
      <point x="172.0" y="672.0"/>
      <point x="71.0" y="599.0"/>
      <point x="71.0" y="473.0" type="curve" smooth="yes"/>
      <point x="71.0" y="232.0"/>
      <point x="400.0" y="354.0"/>
      <point x="400.0" y="216.0" type="curve" smooth="yes"/>
      <point x="400.0" y="182.0"/>
      <point x="359.0" y="161.0"/>
      <point x="298.0" y="161.0" type="curve" smooth="yes"/>
      <point x="240.0" y="161.0"/>
      <point x="191.0" y="187.0"/>
      <point x="153.0" y="254.0" type="curve"/>
      <point x="32.0" y="170.0" type="line"/>
      <point x="98.0" y="66.0"/>
      <point x="184.0" y="27.0"/>
    </contour>
    <component base="verticalTopCurrencycomb" xOffset="304.0"/>
    <component base="verticalBottomCurrencycomb" xOffset="304.0"/>
  </outline>
</glyph>
<glyph name="parenleft" format="2">
  <advance width="368.0"/>
  <unicode hex="0028"/>
  <outline>
    <contour>
      <point x="210.0" y="-214.0" type="curve"/>
      <point x="328.0" y="-151.0" type="line"/>
      <point x="169.0" y="141.0"/>
      <point x="163.0" y="489.0"/>
      <point x="328.0" y="740.0" type="curve"/>
      <point x="210.0" y="803.0" type="line"/>
      <point x="24.0" y="545.0"/>
      <point x="23.0" y="65.0"/>
    </contour>
  </outline>
</glyph>
<glyph name="two" format="2">
  <advance width="613.0"/>
  <unicode hex="0032"/>
  <outline>
    <contour>
      <point x="38.0" y="0.0" type="line"/>
      <point x="537.0" y="0.0" type="line"/>
      <point x="537.0" y="123.0" type="line"/>
      <point x="294.0" y="121.0" type="line"/>
      <point x="294.0" y="124.0" type="line"/>
      <point x="314.0" y="135.0"/>
      <point x="351.0" y="171.0"/>
      <point x="380.0" y="209.0" type="curve" smooth="yes"/>
      <point x="472.0" y="329.0" type="line" smooth="yes"/>
      <point x="518.0" y="388.0"/>
      <point x="533.0" y="434.0"/>
      <point x="533.0" y="490.0" type="curve" smooth="yes"/>
      <point x="533.0" y="614.0"/>
      <point x="432.0" y="713.0"/>
      <point x="287.0" y="713.0" type="curve" smooth="yes"/>
      <point x="143.0" y="713.0"/>
      <point x="38.0" y="614.0"/>
      <point x="38.0" y="470.0" type="curve"/>
      <point x="183.0" y="470.0" type="line"/>
      <point x="183.0" y="542.0"/>
      <point x="220.0" y="583.0"/>
      <point x="285.0" y="583.0" type="curve" smooth="yes"/>
      <point x="350.0" y="583.0"/>
      <point x="388.0" y="542.0"/>
      <point x="388.0" y="482.0" type="curve" smooth="yes"/>
      <point x="388.0" y="439.0"/>
      <point x="360.0" y="395.0"/>
      <point x="318.0" y="346.0" type="curve" smooth="yes"/>
      <point x="38.0" y="16.0" type="line"/>
    </contour>
  </outline>
</glyph>
<glyph name="less" format="2">
  <advance width="596.0"/>
  <unicode hex="003C"/>
  <outline>
    <contour>
      <point x="353.0" y="70.0" type="line"/>
      <point x="522.0" y="70.0" type="line"/>
      <point x="262.0" y="312.0" type="line"/>
      <point x="262.0" y="317.0" type="line"/>
      <point x="522.0" y="550.0" type="line"/>
      <point x="353.0" y="550.0" type="line"/>
      <point x="90.0" y="310.0" type="line"/>
    </contour>
  </outline>
</glyph>
<glyph name="at" format="2">
  <advance width="1001.0"/>
  <unicode hex="0040"/>
  <outline>
    <contour>
      <point x="520.0" y="-216.0" type="curve" smooth="yes"/>
      <point x="574.0" y="-216.0"/>
      <point x="626.0" y="-208.0"/>
      <point x="674.0" y="-192.0" type="curve"/>
      <point x="641.0" y="-105.0" type="line"/>
      <point x="605.0" y="-117.0"/>
      <point x="564.0" y="-125.0"/>
      <point x="521.0" y="-125.0" type="curve" smooth="yes"/>
      <point x="302.0" y="-125.0"/>
      <point x="150.0" y="41.0"/>
      <point x="150.0" y="248.0" type="curve" smooth="yes"/>
      <point x="150.0" y="453.0"/>
      <point x="302.0" y="621.0"/>
      <point x="518.0" y="621.0" type="curve" smooth="yes"/>
      <point x="737.0" y="621.0"/>
      <point x="856.0" y="450.0"/>
      <point x="856.0" y="307.0" type="curve" smooth="yes"/>
      <point x="856.0" y="202.0"/>
      <point x="825.0" y="147.0"/>
      <point x="775.0" y="147.0" type="curve" smooth="yes"/>
      <point x="734.0" y="147.0"/>
      <point x="718.0" y="180.0"/>
      <point x="718.0" y="208.0" type="curve" smooth="yes"/>
      <point x="718.0" y="221.0"/>
      <point x="719.0" y="239.0"/>
      <point x="721.0" y="255.0" type="curve" smooth="yes"/>
      <point x="747.0" y="462.0" type="line"/>
      <point x="613.0" y="462.0" type="line"/>
      <point x="607.0" y="411.0" type="line"/>
      <point x="602.0" y="411.0" type="line"/>
      <point x="584.0" y="447.0"/>
      <point x="550.0" y="471.0"/>
      <point x="491.0" y="471.0" type="curve" smooth="yes"/>
      <point x="367.0" y="471.0"/>
      <point x="267.0" y="358.0"/>
      <point x="267.0" y="235.0" type="curve" smooth="yes"/>
      <point x="267.0" y="120.0"/>
      <point x="346.0" y="39.0"/>
      <point x="459.0" y="39.0" type="curve" smooth="yes"/>
      <point x="529.0" y="39.0"/>
      <point x="579.0" y="83.0"/>
      <point x="594.0" y="127.0" type="curve"/>
      <point x="599.0" y="127.0" type="line"/>
      <point x="625.0" y="74.0"/>
      <point x="667.0" y="39.0"/>
      <point x="750.0" y="39.0" type="curve" smooth="yes"/>
      <point x="893.0" y="39.0"/>
      <point x="955.0" y="161.0"/>
      <point x="955.0" y="296.0" type="curve" smooth="yes"/>
      <point x="955.0" y="507.0"/>
      <point x="784.0" y="713.0"/>
      <point x="520.0" y="713.0" type="curve" smooth="yes"/>
      <point x="253.0" y="713.0"/>
      <point x="51.0" y="507.0"/>
      <point x="51.0" y="248.0" type="curve" smooth="yes"/>
      <point x="51.0" y="-13.0"/>
      <point x="253.0" y="-216.0"/>
    </contour>
    <contour>
      <point x="494.0" y="160.0" type="curve" smooth="yes"/>
      <point x="442.0" y="160.0"/>
      <point x="412.0" y="197.0"/>
      <point x="412.0" y="241.0" type="curve" smooth="yes"/>
      <point x="412.0" y="299.0"/>
      <point x="457.0" y="349.0"/>
      <point x="514.0" y="349.0" type="curve" smooth="yes"/>
      <point x="568.0" y="349.0"/>
      <point x="596.0" y="313.0"/>
      <point x="596.0" y="266.0" type="curve" smooth="yes"/>
      <point x="596.0" y="211.0"/>
      <point x="553.0" y="160.0"/>
    </contour>
  </outline>
</glyph>
<glyph name="E" format="2">
  <advance width="561.0"/>
  <unicode hex="0045"/>
  <anchor x="310.0" y="0.0" name="bottom"/>
  <anchor x="399.0" y="0.0" name="ogonek"/>
  <anchor x="300.0" y="700.0" name="top"/>
  <outline>
    <contour>
      <point x="80.0" y="0.0" type="line"/>
      <point x="492.0" y="0.0" type="line"/>
      <point x="492.0" y="135.0" type="line"/>
      <point x="220.0" y="135.0" type="line"/>
      <point x="220.0" y="287.0" type="line"/>
      <point x="485.0" y="287.0" type="line"/>
      <point x="485.0" y="422.0" type="line"/>
      <point x="220.0" y="422.0" type="line"/>
      <point x="220.0" y="565.0" type="line"/>
      <point x="490.0" y="565.0" type="line"/>
      <point x="490.0" y="700.0" type="line"/>
      <point x="80.0" y="700.0" type="line"/>
    </contour>
  </outline>
</glyph>
<glyph name="G" format="2">
  <advance width="776.0"/>
  <unicode hex="0047"/>
  <anchor x="399.0" y="0.0" name="bottom"/>
  <anchor x="529.0" y="9.0" name="ogonek"/>
  <anchor x="399.0" y="700.0" name="top"/>
  <outline>
    <contour>
      <point x="397.0" y="-13.0" type="curve" smooth="yes"/>
      <point x="607.0" y="-13.0"/>
      <point x="734.0" y="128.0"/>
      <point x="734.0" y="322.0" type="curve" smooth="yes"/>
      <point x="734.0" y="344.0"/>
      <point x="732.0" y="375.0"/>
      <point x="729.0" y="396.0" type="curve"/>
      <point x="364.0" y="396.0" type="line"/>
      <point x="364.0" y="266.0" type="line"/>
      <point x="617.0" y="266.0" type="line"/>
      <point x="588.0" y="285.0" type="line"/>
      <point x="579.0" y="181.0"/>
      <point x="502.0" y="125.0"/>
      <point x="400.0" y="125.0" type="curve" smooth="yes"/>
      <point x="265.0" y="125.0"/>
      <point x="187.0" y="221.0"/>
      <point x="187.0" y="349.0" type="curve" smooth="yes"/>
      <point x="187.0" y="477.0"/>
      <point x="274.0" y="575.0"/>
      <point x="400.0" y="575.0" type="curve" smooth="yes"/>
      <point x="476.0" y="575.0"/>
      <point x="519.0" y="555.0"/>
      <point x="566.0" y="506.0" type="curve"/>
      <point x="666.0" y="601.0" type="line"/>
      <point x="592.0" y="682.0"/>
      <point x="511.0" y="713.0"/>
      <point x="397.0" y="713.0" type="curve" smooth="yes"/>
      <point x="189.0" y="713.0"/>
      <point x="42.0" y="550.0"/>
      <point x="42.0" y="349.0" type="curve" smooth="yes"/>
      <point x="42.0" y="149.0"/>
      <point x="189.0" y="-13.0"/>
    </contour>
  </outline>
</glyph>
<glyph name="L" format="2">
  <advance width="536.0"/>
  <unicode hex="004C"/>
  <anchor x="293.0" y="0.0" name="bottom"/>
  <anchor x="318.0" y="370.0" name="center"/>
  <anchor x="481.0" y="0.0" name="ogonek"/>
  <anchor x="146.0" y="700.0" name="top"/>
  <anchor x="308.0" y="700.0" name="topright"/>
  <outline>
    <contour>
      <point x="80.0" y="0.0" type="line"/>
      <point x="481.0" y="0.0" type="line"/>
      <point x="481.0" y="135.0" type="line"/>
      <point x="220.0" y="135.0" type="line"/>
      <point x="220.0" y="700.0" type="line"/>
      <point x="80.0" y="700.0" type="line"/>
    </contour>
  </outline>
</glyph>
<glyph name="N" format="2">
  <advance width="776.0"/>
  <unicode hex="004E"/>
  <anchor x="395.0" y="0.0" name="bottom"/>
  <anchor x="676.0" y="0.0" name="ogonek"/>
  <anchor x="386.0" y="700.0" name="top"/>
  <outline>
    <contour>
      <point x="80.0" y="0.0" type="line"/>
      <point x="210.0" y="0.0" type="line"/>
      <point x="210.0" y="365.0" type="line" smooth="yes"/>
      <point x="210.0" y="417.0"/>
      <point x="208.0" y="455.0"/>
      <point x="204.0" y="491.0" type="curve"/>
      <point x="207.0" y="491.0" type="line"/>
      <point x="214.0" y="473.0"/>
      <point x="234.0" y="440.0"/>
      <point x="251.0" y="421.0" type="curve" smooth="yes"/>
      <point x="605.0" y="0.0" type="line"/>
      <point x="696.0" y="0.0" type="line"/>
      <point x="696.0" y="700.0" type="line"/>
      <point x="566.0" y="700.0" type="line"/>
      <point x="566.0" y="351.0" type="line" smooth="yes"/>
      <point x="566.0" y="284.0"/>
      <point x="570.0" y="246.0"/>
      <point x="574.0" y="221.0" type="curve"/>
      <point x="570.0" y="221.0" type="line"/>
      <point x="563.0" y="240.0"/>
      <point x="544.0" y="276.0"/>
      <point x="527.0" y="295.0" type="curve" smooth="yes"/>
      <point x="186.0" y="700.0" type="line"/>
      <point x="80.0" y="700.0" type="line"/>
    </contour>
  </outline>
</glyph>
<glyph name="P" format="2">
  <advance width="619.0"/>
  <unicode hex="0050"/>
  <anchor x="150.0" y="0.0" name="bottom"/>
  <anchor x="220.0" y="0.0" name="ogonek"/>
  <anchor x="315.0" y="700.0" name="top"/>
  <outline>
    <contour>
      <point x="80.0" y="0.0" type="line"/>
      <point x="220.0" y="0.0" type="line"/>
      <point x="220.0" y="244.0" type="line"/>
      <point x="326.0" y="244.0" type="line" smooth="yes"/>
      <point x="483.0" y="244.0"/>
      <point x="579.0" y="323.0"/>
      <point x="579.0" y="471.0" type="curve" smooth="yes"/>
      <point x="579.0" y="618.0"/>
      <point x="483.0" y="700.0"/>
      <point x="326.0" y="700.0" type="curve" smooth="yes"/>
      <point x="80.0" y="700.0" type="line"/>
    </contour>
    <contour>
      <point x="220.0" y="379.0" type="line"/>
      <point x="220.0" y="565.0" type="line"/>
      <point x="318.0" y="565.0" type="line" smooth="yes"/>
      <point x="394.0" y="565.0"/>
      <point x="437.0" y="536.0"/>
      <point x="437.0" y="470.0" type="curve" smooth="yes"/>
      <point x="437.0" y="403.0"/>
      <point x="394.0" y="379.0"/>
      <point x="318.0" y="379.0" type="curve" smooth="yes"/>
    </contour>
  </outline>
</glyph>
<glyph name="W" format="2">
  <advance width="1108.0"/>
  <unicode hex="0057"/>
  <anchor x="554.0" y="0.0" name="bottom"/>
  <anchor x="554.0" y="700.0" name="top"/>
  <outline>
    <contour>
      <point x="257.0" y="0.0" type="line"/>
      <point x="383.0" y="0.0" type="line"/>
      <point x="525.0" y="395.0" type="line" smooth="yes"/>
      <point x="544.0" y="448.0"/>
      <point x="547.0" y="475.0"/>
      <point x="551.0" y="501.0" type="curve"/>
      <point x="555.0" y="501.0" type="line"/>
      <point x="559.0" y="475.0"/>
      <point x="564.0" y="449.0"/>
      <point x="583.0" y="395.0" type="curve" smooth="yes"/>
      <point x="725.0" y="0.0" type="line"/>
      <point x="851.0" y="0.0" type="line"/>
      <point x="1085.0" y="700.0" type="line"/>
      <point x="925.0" y="700.0" type="line"/>
      <point x="813.0" y="304.0" type="line" smooth="yes"/>
      <point x="796.0" y="250.0"/>
      <point x="792.0" y="224.0"/>
      <point x="787.0" y="198.0" type="curve"/>
      <point x="783.0" y="198.0" type="line"/>
      <point x="778.0" y="224.0"/>
      <point x="775.0" y="250.0"/>
      <point x="756.0" y="304.0" type="curve" smooth="yes"/>
      <point x="617.0" y="700.0" type="line"/>
      <point x="491.0" y="700.0" type="line"/>
      <point x="352.0" y="304.0" type="line" smooth="yes"/>
      <point x="335.0" y="250.0"/>
      <point x="330.0" y="224.0"/>
      <point x="325.0" y="198.0" type="curve"/>
      <point x="321.0" y="198.0" type="line"/>
      <point x="316.0" y="224.0"/>
      <point x="310.0" y="249.0"/>
      <point x="295.0" y="304.0" type="curve" smooth="yes"/>
      <point x="183.0" y="700.0" type="line"/>
      <point x="23.0" y="700.0" type="line"/>
    </contour>
  </outline>
</glyph>
<glyph name="backslash" format="2">
  <advance width="528.0"/>
  <unicode hex="005C"/>
  <outline>
    <contour>
      <point x="330.0" y="-13.0" type="line"/>
      <point x="478.0" y="-13.0" type="line"/>
      <point x="205.0" y="740.0" type="line"/>
      <point x="55.0" y="740.0" type="line"/>
    </contour>
  </outline>
</glyph>
<glyph name="a" format="2">
  <advance width="654.0"/>
  <unicode hex="0061"/>
  <anchor x="312.0" y="0.0" name="bottom"/>
  <anchor x="449.0" y="0.0" name="ogonek"/>
  <anchor x="306.0" y="505.0" name="top"/>
  <outline>
    <contour>
      <point x="290.0" y="-13.0" type="curve" smooth="yes"/>
      <point x="362.0" y="-13.0"/>
      <point x="428.0" y="21.0"/>
      <point x="447.0" y="74.0" type="curve"/>
      <point x="453.0" y="74.0" type="line"/>
      <point x="453.0" y="0.0" type="line"/>
      <point x="584.0" y="0.0" type="line"/>
      <point x="584.0" y="505.0" type="line"/>
      <point x="453.0" y="505.0" type="line"/>
      <point x="453.0" y="429.0" type="line"/>
      <point x="447.0" y="429.0" type="line"/>
      <point x="428.0" y="484.0"/>
      <point x="362.0" y="518.0"/>
      <point x="290.0" y="518.0" type="curve" smooth="yes"/>
      <point x="141.0" y="518.0"/>
      <point x="40.0" y="393.0"/>
      <point x="40.0" y="252.0" type="curve" smooth="yes"/>
      <point x="40.0" y="112.0"/>
      <point x="141.0" y="-13.0"/>
    </contour>
    <contour>
      <point x="312.0" y="110.0" type="curve" smooth="yes"/>
      <point x="233.0" y="110.0"/>
      <point x="175.0" y="171.0"/>
      <point x="175.0" y="253.0" type="curve" smooth="yes"/>
      <point x="175.0" y="334.0"/>
      <point x="233.0" y="395.0"/>
      <point x="312.0" y="395.0" type="curve" smooth="yes"/>
      <point x="391.0" y="395.0"/>
      <point x="449.0" y="334.0"/>
      <point x="449.0" y="252.0" type="curve" smooth="yes"/>
      <point x="449.0" y="171.0"/>
      <point x="391.0" y="110.0"/>
    </contour>
  </outline>
</glyph>
<glyph name="e" format="2">
  <advance width="587.0"/>
  <unicode hex="0065"/>
  <anchor x="310.0" y="0.0" name="bottom"/>
  <anchor x="355.0" y="26.0" name="ogonek"/>
  <anchor x="301.0" y="505.0" name="top"/>
  <outline>
    <contour>
      <point x="308.0" y="-13.0" type="curve" smooth="yes"/>
      <point x="402.0" y="-13.0"/>
      <point x="481.0" y="26.0"/>
      <point x="524.0" y="75.0" type="curve"/>
      <point x="435.0" y="165.0" type="line"/>
      <point x="409.0" y="129.0"/>
      <point x="361.0" y="107.0"/>
      <point x="311.0" y="107.0" type="curve" smooth="yes"/>
      <point x="224.0" y="107.0"/>
      <point x="182.0" y="174.0"/>
      <point x="176.0" y="239.0" type="curve"/>
      <point x="175.0" y="260.0" type="line"/>
      <point x="172.0" y="357.0"/>
      <point x="224.0" y="409.0"/>
      <point x="299.0" y="409.0" type="curve" smooth="yes"/>
      <point x="379.0" y="409.0"/>
      <point x="414.0" y="357.0"/>
      <point x="411.0" y="265.0" type="curve"/>
      <point x="451.0" y="316.0" type="line"/>
      <point x="121.0" y="316.0" type="line"/>
      <point x="121.0" y="216.0" type="line"/>
      <point x="543.0" y="216.0" type="line"/>
      <point x="546.0" y="225.0"/>
      <point x="547.0" y="245.0"/>
      <point x="547.0" y="262.0" type="curve" smooth="yes"/>
      <point x="547.0" y="416.0"/>
      <point x="449.0" y="518.0"/>
      <point x="301.0" y="518.0" type="curve" smooth="yes"/>
      <point x="153.0" y="518.0"/>
      <point x="40.0" y="419.0"/>
      <point x="40.0" y="249.0" type="curve" smooth="yes"/>
      <point x="40.0" y="99.0"/>
      <point x="146.0" y="-13.0"/>
    </contour>
  </outline>
</glyph>
<glyph name="m" format="2">
  <advance width="930.0"/>
  <unicode hex="006D"/>
  <anchor x="472.0" y="0.0" name="bottom"/>
  <anchor x="730.0" y="0.0" name="ogonek"/>
  <anchor x="476.0" y="505.0" name="top"/>
  <outline>
    <contour>
      <point x="70.0" y="0.0" type="line"/>
      <point x="205.0" y="0.0" type="line"/>
      <point x="205.0" y="290.0" type="line" smooth="yes"/>
      <point x="205.0" y="357.0"/>
      <point x="243.0" y="399.0"/>
      <point x="303.0" y="399.0" type="curve" smooth="yes"/>
      <point x="366.0" y="399.0"/>
      <point x="405.0" y="357.0"/>
      <point x="405.0" y="290.0" type="curve" smooth="yes"/>
      <point x="405.0" y="0.0" type="line"/>
      <point x="540.0" y="0.0" type="line"/>
      <point x="540.0" y="290.0" type="line" smooth="yes"/>
      <point x="540.0" y="357.0"/>
      <point x="577.0" y="399.0"/>
      <point x="636.0" y="399.0" type="curve" smooth="yes"/>
      <point x="694.0" y="399.0"/>
      <point x="730.0" y="357.0"/>
      <point x="730.0" y="290.0" type="curve" smooth="yes"/>
      <point x="730.0" y="0.0" type="line"/>
      <point x="865.0" y="0.0" type="line"/>
      <point x="865.0" y="323.0" type="line" smooth="yes"/>
      <point x="865.0" y="434.0"/>
      <point x="784.0" y="518.0"/>
      <point x="677.0" y="518.0" type="curve" smooth="yes"/>
      <point x="606.0" y="518.0"/>
      <point x="541.0" y="485.0"/>
      <point x="508.0" y="433.0" type="curve"/>
      <point x="502.0" y="433.0" type="line"/>
      <point x="474.0" y="485.0"/>
      <point x="416.0" y="518.0"/>
      <point x="352.0" y="518.0" type="curve" smooth="yes"/>
      <point x="293.0" y="518.0"/>
      <point x="236.0" y="487.0"/>
      <point x="207.0" y="437.0" type="curve"/>
      <point x="201.0" y="437.0" type="line"/>
      <point x="201.0" y="505.0" type="line"/>
      <point x="70.0" y="505.0" type="line"/>
    </contour>
  </outline>
</glyph>
<glyph name="t" format="2">
  <advance width="412.0"/>
  <unicode hex="0074"/>
  <anchor x="207.0" y="293.0" name="bar"/>
  <anchor x="252.0" y="0.0" name="bottom"/>
  <anchor x="181.0" y="276.0" name="center"/>
  <anchor x="181.0" y="637.0" name="top"/>
  <anchor x="310.0" y="700.0" name="topright"/>
  <outline>
    <contour>
      <point x="301.0" y="-13.0" type="curve" smooth="yes"/>
      <point x="343.0" y="-13.0"/>
      <point x="363.0" y="-10.0"/>
      <point x="392.0" y="-4.0" type="curve"/>
      <point x="392.0" y="110.0" type="line"/>
      <point x="374.0" y="105.0"/>
      <point x="350.0" y="102.0"/>
      <point x="322.0" y="102.0" type="curve" smooth="yes"/>
      <point x="285.0" y="102.0"/>
      <point x="248.0" y="123.0"/>
      <point x="248.0" y="174.0" type="curve" smooth="yes"/>
      <point x="248.0" y="644.0" type="line"/>
      <point x="113.0" y="630.0" type="line"/>
      <point x="113.0" y="163.0" type="line" smooth="yes"/>
      <point x="113.0" y="57.0"/>
      <point x="191.0" y="-13.0"/>
    </contour>
    <contour>
      <point x="20.0" y="385.0" type="line"/>
      <point x="392.0" y="385.0" type="line"/>
      <point x="392.0" y="505.0" type="line"/>
      <point x="20.0" y="505.0" type="line"/>
    </contour>
  </outline>
</glyph>
<glyph name="w" format="2">
  <advance width="876.0"/>
  <unicode hex="0077"/>
  <anchor x="442.0" y="0.0" name="bottom"/>
  <anchor x="442.0" y="505.0" name="top"/>
  <outline>
    <contour>
      <point x="182.0" y="0.0" type="line"/>
      <point x="337.0" y="0.0" type="line"/>
      <point x="417.0" y="274.0" type="line" smooth="yes"/>
      <point x="426.0" y="306.0"/>
      <point x="432.0" y="338.0"/>
      <point x="437.0" y="374.0" type="curve"/>
      <point x="445.0" y="374.0" type="line"/>
      <point x="450.0" y="338.0"/>
      <point x="457.0" y="306.0"/>
      <point x="467.0" y="274.0" type="curve" smooth="yes"/>
      <point x="549.0" y="0.0" type="line"/>
      <point x="695.0" y="0.0" type="line"/>
      <point x="861.0" y="505.0" type="line"/>
      <point x="714.0" y="505.0" type="line"/>
      <point x="647.0" y="232.0" type="line" smooth="yes"/>
      <point x="639.0" y="201.0"/>
      <point x="630.0" y="167.0"/>
      <point x="626.0" y="131.0" type="curve"/>
      <point x="618.0" y="131.0" type="line"/>
      <point x="614.0" y="167.0"/>
      <point x="606.0" y="202.0"/>
      <point x="597.0" y="233.0" type="curve" smooth="yes"/>
      <point x="519.0" y="505.0" type="line"/>
      <point x="364.0" y="505.0" type="line"/>
      <point x="286.0" y="233.0" type="line" smooth="yes"/>
      <point x="277.0" y="201.0"/>
      <point x="270.0" y="167.0"/>
      <point x="265.0" y="131.0" type="curve"/>
      <point x="257.0" y="131.0" type="line"/>
      <point x="252.0" y="167.0"/>
      <point x="244.0" y="201.0"/>
      <point x="237.0" y="232.0" type="curve" smooth="yes"/>
      <point x="173.0" y="505.0" type="line"/>
      <point x="15.0" y="505.0" type="line"/>
    </contour>
  </outline>
</glyph>
<glyph name="currency" format="2">
  <advance width="579.0"/>
  <unicode hex="00A4"/>
  <anchor x="160.655071" y="461.573967" name="_TopCurrency"/>
  <outline>
    <contour>
      <point x="289.0" y="107.0" type="curve" smooth="yes"/>
      <point x="418.0" y="107.0"/>
      <point x="511.0" y="202.0"/>
      <point x="511.0" y="322.0" type="curve" smooth="yes"/>
      <point x="511.0" y="442.0"/>
      <point x="418.0" y="538.0"/>
      <point x="289.0" y="538.0" type="curve" smooth="yes"/>
      <point x="160.0" y="538.0"/>
      <point x="67.0" y="442.0"/>
      <point x="67.0" y="322.0" type="curve" smooth="yes"/>
      <point x="67.0" y="202.0"/>
      <point x="160.0" y="107.0"/>
    </contour>
    <contour>
      <point x="289.0" y="221.0" type="curve" smooth="yes"/>
      <point x="229.0" y="221.0"/>
      <point x="189.0" y="265.0"/>
      <point x="189.0" y="322.0" type="curve" smooth="yes"/>
      <point x="189.0" y="379.0"/>
      <point x="229.0" y="424.0"/>
      <point x="289.0" y="424.0" type="curve" smooth="yes"/>
      <point x="349.0" y="424.0"/>
      <point x="389.0" y="379.0"/>
      <point x="389.0" y="322.0" type="curve" smooth="yes"/>
      <point x="389.0" y="265.0"/>
      <point x="349.0" y="221.0"/>
    </contour>
    <component base="verticalTopCurrencycomb" xScale="0.7313537016191705" xyScale="0.6819983600624985" yxScale="-0.6819983600624985" yScale="0.7313537016191705" xOffset="606.0" yOffset="-16.0"/>
    <component base="verticalTopCurrencycomb" xScale="0.7313537016191705" xyScale="-0.6819983600624985" yxScale="0.6819983600624985" yScale="0.7313537016191705" xOffset="-28.0" yOffset="-16.0"/>
    <component base="verticalTopCurrencycomb" xScale="-0.7313537016191705" xyScale="-0.6819983600624986" yxScale="0.6819983600624986" yScale="-0.7313537016191705" xOffset="-27.0" yOffset="663.0"/>
    <component base="verticalTopCurrencycomb" xScale="-0.7313537016191705" xyScale="0.6819983600624986" yxScale="-0.6819983600624986" yScale="-0.7313537016191705" xOffset="607.0" yOffset="663.0"/>
  </outline>
</glyph>
<glyph name="brokenbar" format="2">
  <advance width="288.0"/>
  <unicode hex="00A6"/>
  <outline>
    <contour>
      <point x="80.0" y="375.0" type="line"/>
      <point x="208.0" y="375.0" type="line"/>
      <point x="208.0" y="900.0" type="line"/>
      <point x="80.0" y="900.0" type="line"/>
      <point x="80.0" y="535.0" type="line"/>
    </contour>
    <contour>
      <point x="208.0" y="305.0" type="line"/>
      <point x="80.0" y="305.0" type="line"/>
      <point x="80.0" y="3.0" type="line"/>
      <point x="80.0" y="-220.0" type="line"/>
      <point x="208.0" y="-220.0" type="line"/>
    </contour>
  </outline>
</glyph>
<glyph name="logicalnot" format="2">
  <advance width="596.0"/>
  <unicode hex="00AC"/>
  <outline>
    <contour>
      <point x="378.0" y="188.0" type="line"/>
      <point x="498.0" y="188.0" type="line"/>
      <point x="498.0" y="400.0" type="line"/>
      <point x="84.0" y="400.0" type="line"/>
      <point x="84.0" y="290.0" type="line"/>
      <point x="378.0" y="290.0" type="line"/>
    </contour>
  </outline>
</glyph>
<glyph name="paragraph" format="2">
  <advance width="586.0"/>
  <unicode hex="00B6"/>
  <outline>
    <contour>
      <point x="286.0" y="0.0" type="line"/>
      <point x="361.0" y="0.0" type="line"/>
      <point x="361.0" y="600.0" type="line"/>
      <point x="431.0" y="600.0" type="line"/>
      <point x="431.0" y="0.0" type="line"/>
      <point x="506.0" y="0.0" type="line"/>
      <point x="506.0" y="700.0" type="line"/>
      <point x="256.0" y="700.0" type="line" smooth="yes"/>
      <point x="122.0" y="700.0"/>
      <point x="40.0" y="636.0"/>
      <point x="40.0" y="510.0" type="curve" smooth="yes"/>
      <point x="40.0" y="384.0"/>
      <point x="122.0" y="318.0"/>
      <point x="256.0" y="318.0" type="curve" smooth="yes"/>
      <point x="286.0" y="318.0" type="line"/>
    </contour>
  </outline>
</glyph>
<glyph name="eth" format="2">
  <advance width="614.0"/>
  <unicode hex="00F0"/>
  <outline>
    <contour>
      <point x="363.0" y="499.0" type="curve"/>
      <point x="357.0" y="495.0" type="line"/>
      <point x="331.0" y="506.0"/>
      <point x="303.0" y="511.0"/>
      <point x="276.0" y="511.0" type="curve" smooth="yes"/>
      <point x="159.0" y="511.0"/>
      <point x="40.0" y="406.0"/>
      <point x="40.0" y="252.0" type="curve" smooth="yes"/>
      <point x="40.0" y="101.0"/>
      <point x="150.0" y="-13.0"/>
      <point x="297.0" y="-13.0" type="curve" smooth="yes"/>
      <point x="459.0" y="-13.0"/>
      <point x="574.0" y="101.0"/>
      <point x="574.0" y="252.0" type="curve" smooth="yes"/>
      <point x="574.0" y="442.0"/>
      <point x="439.0" y="662.0"/>
      <point x="241.0" y="825.0" type="curve"/>
      <point x="144.0" y="734.0" type="line"/>
      <point x="243.0" y="656.0"/>
      <point x="306.0" y="591.0"/>
    </contour>
    <contour>
      <point x="307.0" y="110.0" type="curve" smooth="yes"/>
      <point x="231.0" y="110.0"/>
      <point x="175.0" y="165.0"/>
      <point x="175.0" y="252.0" type="curve" smooth="yes"/>
      <point x="175.0" y="340.0"/>
      <point x="231.0" y="395.0"/>
      <point x="307.0" y="395.0" type="curve" smooth="yes"/>
      <point x="383.0" y="395.0"/>
      <point x="439.0" y="340.0"/>
      <point x="439.0" y="252.0" type="curve" smooth="yes"/>
      <point x="439.0" y="165.0"/>
      <point x="383.0" y="110.0"/>
    </contour>
    <contour>
      <point x="153.0" y="527.0" type="line"/>
      <point x="514.0" y="637.0" type="line"/>
      <point x="514.0" y="754.0" type="line"/>
      <point x="353.0" y="705.0" type="line"/>
      <point x="298.0" y="677.0" type="line"/>
      <point x="153.0" y="637.0" type="line"/>
    </contour>
  </outline>
</glyph>
<glyph name="Dcroat" format="2">
  <advance width="736.0"/>
  <unicode hex="0110"/>
  <anchor x="349.0" y="0.0" name="bottom"/>
  <anchor x="150.0" y="349.0" name="center"/>
  <anchor x="367.0" y="700.0" name="top"/>
  <outline>
    <contour>
      <point x="10.0" y="295.0" type="line"/>
      <point x="369.0" y="295.0" type="line"/>
      <point x="369.0" y="415.0" type="line"/>
      <point x="10.0" y="415.0" type="line"/>
    </contour>
    <component base="D"/>
  </outline>
</glyph>
<glyph name="gravecomb" format="2">
  <unicode hex="0300"/>
  <anchor x="0.0" y="505.0" name="_top"/>
  <anchor x="1.0" y="660.0" name="top"/>
  <outline>
    <contour>
      <point x="-31.0" y="547.0" type="line"/>
      <point x="35.0" y="547.0" type="line"/>
      <point x="13.0" y="706.0" type="line"/>
      <point x="-138.0" y="706.0" type="line"/>
    </contour>
  </outline>
</glyph>
<glyph name="macroncomb" format="2">
  <unicode hex="0304"/>
  <anchor x="0.0" y="505.0" name="_top"/>
  <anchor x="0.0" y="681.0" name="top"/>
  <outline>
    <contour>
      <point x="-153.0" y="598.0" type="line"/>
      <point x="153.0" y="598.0" type="line"/>
      <point x="153.0" y="688.0" type="line"/>
      <point x="-153.0" y="688.0" type="line"/>
    </contour>
  </outline>
</glyph>
<glyph name="hookabovecomb" format="2">
  <unicode hex="0309"/>
  <anchor x="0.0" y="505.0" name="_top"/>
  <anchor x="0.0" y="705.0" name="top"/>
  <outline>
    <contour>
      <point x="-33.0" y="553.0" type="curve"/>
      <point x="43.0" y="553.0" type="line"/>
      <point x="67.0" y="567.0"/>
      <point x="80.0" y="596.0"/>
      <point x="80.0" y="630.0" type="curve" smooth="yes"/>
      <point x="80.0" y="682.0"/>
      <point x="33.0" y="724.0"/>
      <point x="-31.0" y="724.0" type="curve" smooth="yes"/>
      <point x="-67.0" y="724.0"/>
      <point x="-97.0" y="716.0"/>
      <point x="-123.0" y="696.0" type="curve"/>
      <point x="-82.0" y="627.0" type="line"/>
      <point x="-67.0" y="636.0"/>
      <point x="-55.0" y="641.0"/>
      <point x="-34.0" y="641.0" type="curve" smooth="yes"/>
      <point x="-14.0" y="641.0"/>
      <point x="10.0" y="629.0"/>
      <point x="10.0" y="605.0" type="curve" smooth="yes"/>
      <point x="10.0" y="587.0"/>
      <point x="-2.0" y="569.0"/>
    </contour>
  </outline>
</glyph>
<glyph name="interrobang" format="2">
  <advance width="540.0"/>
  <unicode hex="203D"/>
  <outline>
    <contour>
      <point x="213.0" y="213.0" type="line"/>
      <point x="313.0" y="213.0" type="line"/>
      <point x="319.0" y="346.0" type="line"/>
      <point x="288.0" y="273.0" type="line"/>
      <point x="361.0" y="342.0" type="line"/>
      <point x="320.0" y="401.0" type="line"/>
      <point x="323.0" y="412.0"/>
      <point x="325.0" y="419.0"/>
      <point x="325.0" y="431.0" type="curve" smooth="yes"/>
      <point x="329.0" y="533.0" type="line"/>
      <point x="196.0" y="533.0" type="line"/>
    </contour>
    <contour>
      <point x="265.0" y="298.0" type="line"/>
      <point x="399.0" y="298.0"/>
      <point x="500.0" y="387.0"/>
      <point x="500.0" y="506.0" type="curve" smooth="yes"/>
      <point x="500.0" y="624.0"/>
      <point x="399.0" y="713.0"/>
      <point x="264.0" y="713.0" type="curve" smooth="yes"/>
      <point x="133.0" y="713.0"/>
      <point x="34.0" y="632.0"/>
      <point x="34.0" y="500.0" type="curve"/>
      <point x="160.0" y="500.0" type="line"/>
      <point x="160.0" y="566.0"/>
      <point x="201.0" y="607.0"/>
      <point x="265.0" y="607.0" type="curve" smooth="yes"/>
      <point x="332.0" y="607.0"/>
      <point x="374.0" y="563.0"/>
      <point x="374.0" y="494.0" type="curve" smooth="yes"/>
      <point x="374.0" y="433.0"/>
      <point x="332.0" y="395.0"/>
      <point x="265.0" y="395.0" type="curve"/>
    </contour>
    <component base="period" xOffset="122.0"/>
  </outline>
</glyph>
<glyph name="won" format="2">
  <advance width="1046.0"/>
  <unicode hex="20A9"/>
  <outline>
    <contour>
      <point x="250.0" y="30.0" type="line"/>
      <point x="370.0" y="30.0" type="line"/>
      <point x="493.0" y="394.0" type="line" smooth="yes"/>
      <point x="511.0" y="447.0"/>
      <point x="517.0" y="471.0"/>
      <point x="520.0" y="496.0" type="curve"/>
      <point x="525.0" y="496.0" type="line"/>
      <point x="530.0" y="471.0"/>
      <point x="537.0" y="447.0"/>
      <point x="555.0" y="394.0" type="curve" smooth="yes"/>
      <point x="678.0" y="30.0" type="line"/>
      <point x="798.0" y="30.0" type="line"/>
      <point x="993.0" y="670.0" type="line"/>
      <point x="849.0" y="670.0" type="line"/>
      <point x="757.0" y="305.0" type="line" smooth="yes"/>
      <point x="744.0" y="252.0"/>
      <point x="740.0" y="218.0"/>
      <point x="734.0" y="193.0" type="curve"/>
      <point x="731.0" y="193.0" type="line"/>
      <point x="725.0" y="218.0"/>
      <point x="719.0" y="251.0"/>
      <point x="701.0" y="305.0" type="curve" smooth="yes"/>
      <point x="581.0" y="670.0" type="line"/>
      <point x="467.0" y="670.0" type="line"/>
      <point x="347.0" y="305.0" type="line" smooth="yes"/>
      <point x="330.0" y="253.0"/>
      <point x="323.0" y="218.0"/>
      <point x="317.0" y="193.0" type="curve"/>
      <point x="314.0" y="193.0" type="line"/>
      <point x="308.0" y="218.0"/>
      <point x="305.0" y="251.0"/>
      <point x="291.0" y="305.0" type="curve" smooth="yes"/>
      <point x="199.0" y="670.0" type="line"/>
      <point x="55.0" y="670.0" type="line"/>
    </contour>
    <contour>
      <point x="40.0" y="271.0" type="line"/>
      <point x="1006.0" y="271.0" type="line"/>
      <point x="1006.0" y="333.0" type="line"/>
      <point x="40.0" y="333.0" type="line"/>
    </contour>
    <contour>
      <point x="40.0" y="368.0" type="line"/>
      <point x="1006.0" y="368.0" type="line"/>
      <point x="1006.0" y="430.0" type="line"/>
      <point x="40.0" y="430.0" type="line"/>
    </contour>
  </outline>
</glyph>
<glyph name="tugrik" format="2">
  <advance width="630.0"/>
  <unicode hex="20AE"/>
  <outline>
    <contour>
      <point x="245.0" y="30.0" type="line"/>
      <point x="385.0" y="30.0" type="line"/>
      <point x="385.0" y="605.0" type="line"/>
      <point x="245.0" y="605.0" type="line"/>
    </contour>
    <contour>
      <point x="45.0" y="535.0" type="line"/>
      <point x="585.0" y="535.0" type="line"/>
      <point x="585.0" y="670.0" type="line"/>
      <point x="45.0" y="670.0" type="line"/>
    </contour>
    <contour>
      <point x="81.0" y="137.0" type="line"/>
      <point x="549.0" y="237.0" type="line"/>
      <point x="549.0" y="327.0" type="line"/>
      <point x="81.0" y="227.0" type="line"/>
    </contour>
    <contour>
      <point x="81.0" y="283.0" type="line"/>
      <point x="549.0" y="383.0" type="line"/>
      <point x="549.0" y="467.0" type="line"/>
      <point x="81.0" y="372.0" type="line"/>
    </contour>
  </outline>
</glyph>
<glyph name="Ohm" format="2">
  <advance width="794.0"/>
  <unicode hex="2126"/>
  <outline>
    <contour>
      <point x="20.0" y="0.0" type="line"/>
      <point x="343.0" y="0.0" type="line"/>
      <point x="343.0" y="105.0" type="line"/>
      <point x="279.0" y="116.0"/>
      <point x="185.0" y="203.0"/>
      <point x="185.0" y="349.0" type="curve" smooth="yes"/>
      <point x="185.0" y="496.0"/>
      <point x="281.0" y="575.0"/>
      <point x="397.0" y="575.0" type="curve" smooth="yes"/>
      <point x="512.0" y="575.0"/>
      <point x="609.0" y="496.0"/>
      <point x="609.0" y="349.0" type="curve" smooth="yes"/>
      <point x="609.0" y="212.0"/>
      <point x="525.0" y="125.0"/>
      <point x="467.0" y="105.0" type="curve"/>
      <point x="467.0" y="0.0" type="line"/>
      <point x="774.0" y="0.0" type="line"/>
      <point x="774.0" y="133.0" type="line"/>
      <point x="669.0" y="133.0" type="line"/>
      <point x="669.0" y="135.0" type="line"/>
      <point x="722.0" y="188.0"/>
      <point x="752.0" y="268.0"/>
      <point x="752.0" y="349.0" type="curve" smooth="yes"/>
      <point x="752.0" y="557.0"/>
      <point x="600.0" y="713.0"/>
      <point x="397.0" y="713.0" type="curve" smooth="yes"/>
      <point x="194.0" y="713.0"/>
      <point x="42.0" y="557.0"/>
      <point x="42.0" y="349.0" type="curve" smooth="yes"/>
      <point x="42.0" y="267.0"/>
      <point x="74.0" y="187.0"/>
      <point x="126.0" y="135.0" type="curve"/>
      <point x="126.0" y="133.0" type="line"/>
      <point x="20.0" y="133.0" type="line"/>
    </contour>
  </outline>
</glyph>
<glyph name="rightBlackSmallTriangle" format="2">
  <advance width="386.0"/>
  <unicode hex="25B8"/>
  <outline>
    <contour>
      <point x="90.0" y="208.0" type="line"/>
      <point x="356.0" y="362.0" type="line"/>
      <point x="90.0" y="515.0" type="line"/>
    </contour>
  </outline>
</glyph>
<glyph name="dottedCircle" format="2">
  <advance width="640.0"/>
  <unicode hex="25CC"/>
  <outline>
    <contour>
      <point x="335.0" y="22.0" type="curve" smooth="yes"/>
      <point x="335.0" y="8.0"/>
      <point x="323.0" y="-3.0"/>
      <point x="309.0" y="-3.0" type="curve" smooth="yes"/>
      <point x="295.0" y="-3.0"/>
      <point x="284.0" y="8.0"/>
      <point x="284.0" y="22.0" type="curve" smooth="yes"/>
      <point x="284.0" y="36.0"/>
      <point x="295.0" y="47.0"/>
      <point x="309.0" y="47.0" type="curve" smooth="yes"/>
      <point x="323.0" y="47.0"/>
      <point x="335.0" y="36.0"/>
    </contour>
    <contour>
      <point x="437.0" y="38.0" type="curve" smooth="yes"/>
      <point x="437.0" y="24.0"/>
      <point x="425.0" y="13.0"/>
      <point x="411.0" y="13.0" type="curve" smooth="yes"/>
      <point x="397.0" y="13.0"/>
      <point x="386.0" y="24.0"/>
      <point x="386.0" y="38.0" type="curve" smooth="yes"/>
      <point x="386.0" y="52.0"/>
      <point x="397.0" y="63.0"/>
      <point x="411.0" y="63.0" type="curve" smooth="yes"/>
      <point x="425.0" y="63.0"/>
      <point x="437.0" y="52.0"/>
    </contour>
    <contour>
      <point x="525.0" y="92.0" type="curve" smooth="yes"/>
      <point x="525.0" y="78.0"/>
      <point x="514.0" y="67.0"/>
      <point x="500.0" y="67.0" type="curve" smooth="yes"/>
      <point x="486.0" y="67.0"/>
      <point x="474.0" y="78.0"/>
      <point x="474.0" y="92.0" type="curve" smooth="yes"/>
      <point x="474.0" y="106.0"/>
      <point x="486.0" y="117.0"/>
      <point x="500.0" y="117.0" type="curve" smooth="yes"/>
      <point x="514.0" y="117.0"/>
      <point x="525.0" y="106.0"/>
    </contour>
    <contour>
      <point x="586.0" y="175.0" type="curve" smooth="yes"/>
      <point x="586.0" y="161.0"/>
      <point x="575.0" y="150.0"/>
      <point x="561.0" y="150.0" type="curve" smooth="yes"/>
      <point x="547.0" y="150.0"/>
      <point x="535.0" y="161.0"/>
      <point x="535.0" y="175.0" type="curve" smooth="yes"/>
      <point x="535.0" y="189.0"/>
      <point x="547.0" y="201.0"/>
      <point x="561.0" y="201.0" type="curve" smooth="yes"/>
      <point x="575.0" y="201.0"/>
      <point x="586.0" y="189.0"/>
    </contour>
    <contour>
      <point x="610.0" y="276.0" type="curve" smooth="yes"/>
      <point x="610.0" y="262.0"/>
      <point x="599.0" y="250.0"/>
      <point x="585.0" y="250.0" type="curve" smooth="yes"/>
      <point x="571.0" y="250.0"/>
      <point x="560.0" y="262.0"/>
      <point x="560.0" y="276.0" type="curve" smooth="yes"/>
      <point x="560.0" y="290.0"/>
      <point x="571.0" y="301.0"/>
      <point x="585.0" y="301.0" type="curve" smooth="yes"/>
      <point x="599.0" y="301.0"/>
      <point x="610.0" y="290.0"/>
    </contour>
    <contour>
      <point x="594.0" y="378.0" type="curve" smooth="yes"/>
      <point x="594.0" y="364.0"/>
      <point x="583.0" y="353.0"/>
      <point x="569.0" y="353.0" type="curve" smooth="yes"/>
      <point x="555.0" y="353.0"/>
      <point x="544.0" y="364.0"/>
      <point x="544.0" y="378.0" type="curve" smooth="yes"/>
      <point x="544.0" y="392.0"/>
      <point x="555.0" y="403.0"/>
      <point x="569.0" y="403.0" type="curve" smooth="yes"/>
      <point x="583.0" y="403.0"/>
      <point x="594.0" y="392.0"/>
    </contour>
    <contour>
      <point x="541.0" y="466.0" type="curve" smooth="yes"/>
      <point x="541.0" y="452.0"/>
      <point x="529.0" y="441.0"/>
      <point x="515.0" y="441.0" type="curve" smooth="yes"/>
      <point x="501.0" y="441.0"/>
      <point x="490.0" y="452.0"/>
      <point x="490.0" y="466.0" type="curve" smooth="yes"/>
      <point x="490.0" y="480.0"/>
      <point x="501.0" y="492.0"/>
      <point x="515.0" y="492.0" type="curve" smooth="yes"/>
      <point x="529.0" y="492.0"/>
      <point x="541.0" y="480.0"/>
    </contour>
    <contour>
      <point x="457.0" y="527.0" type="curve" smooth="yes"/>
      <point x="457.0" y="513.0"/>
      <point x="446.0" y="502.0"/>
      <point x="432.0" y="502.0" type="curve" smooth="yes"/>
      <point x="418.0" y="502.0"/>
      <point x="406.0" y="513.0"/>
      <point x="406.0" y="527.0" type="curve" smooth="yes"/>
      <point x="406.0" y="541.0"/>
      <point x="418.0" y="552.0"/>
      <point x="432.0" y="552.0" type="curve" smooth="yes"/>
      <point x="446.0" y="552.0"/>
      <point x="457.0" y="541.0"/>
    </contour>
    <contour>
      <point x="357.0" y="551.0" type="curve" smooth="yes"/>
      <point x="357.0" y="537.0"/>
      <point x="345.0" y="526.0"/>
      <point x="331.0" y="526.0" type="curve" smooth="yes"/>
      <point x="317.0" y="526.0"/>
      <point x="306.0" y="537.0"/>
      <point x="306.0" y="551.0" type="curve" smooth="yes"/>
      <point x="306.0" y="565.0"/>
      <point x="317.0" y="577.0"/>
      <point x="331.0" y="577.0" type="curve" smooth="yes"/>
      <point x="345.0" y="577.0"/>
      <point x="357.0" y="565.0"/>
    </contour>
    <contour>
      <point x="255.0" y="536.0" type="curve" smooth="yes"/>
      <point x="255.0" y="522.0"/>
      <point x="243.0" y="510.0"/>
      <point x="229.0" y="510.0" type="curve" smooth="yes"/>
      <point x="215.0" y="510.0"/>
      <point x="204.0" y="522.0"/>
      <point x="204.0" y="536.0" type="curve" smooth="yes"/>
      <point x="204.0" y="550.0"/>
      <point x="215.0" y="561.0"/>
      <point x="229.0" y="561.0" type="curve" smooth="yes"/>
      <point x="243.0" y="561.0"/>
      <point x="255.0" y="550.0"/>
    </contour>
    <contour>
      <point x="166.0" y="482.0" type="curve" smooth="yes"/>
      <point x="166.0" y="468.0"/>
      <point x="155.0" y="456.0"/>
      <point x="141.0" y="456.0" type="curve" smooth="yes"/>
      <point x="127.0" y="456.0"/>
      <point x="116.0" y="468.0"/>
      <point x="116.0" y="482.0" type="curve" smooth="yes"/>
      <point x="116.0" y="496.0"/>
      <point x="127.0" y="507.0"/>
      <point x="141.0" y="507.0" type="curve" smooth="yes"/>
      <point x="155.0" y="507.0"/>
      <point x="166.0" y="496.0"/>
    </contour>
    <contour>
      <point x="105.0" y="398.0" type="curve" smooth="yes"/>
      <point x="105.0" y="384.0"/>
      <point x="94.0" y="373.0"/>
      <point x="80.0" y="373.0" type="curve" smooth="yes"/>
      <point x="66.0" y="373.0"/>
      <point x="55.0" y="384.0"/>
      <point x="55.0" y="398.0" type="curve" smooth="yes"/>
      <point x="55.0" y="412.0"/>
      <point x="66.0" y="424.0"/>
      <point x="80.0" y="424.0" type="curve" smooth="yes"/>
      <point x="94.0" y="424.0"/>
      <point x="105.0" y="412.0"/>
    </contour>
    <contour>
      <point x="81.0" y="298.0" type="curve" smooth="yes"/>
      <point x="81.0" y="284.0"/>
      <point x="70.0" y="273.0"/>
      <point x="56.0" y="273.0" type="curve" smooth="yes"/>
      <point x="42.0" y="273.0"/>
      <point x="30.0" y="284.0"/>
      <point x="30.0" y="298.0" type="curve" smooth="yes"/>
      <point x="30.0" y="312.0"/>
      <point x="42.0" y="323.0"/>
      <point x="56.0" y="323.0" type="curve" smooth="yes"/>
      <point x="70.0" y="323.0"/>
      <point x="81.0" y="312.0"/>
    </contour>
    <contour>
      <point x="97.0" y="196.0" type="curve" smooth="yes"/>
      <point x="97.0" y="182.0"/>
      <point x="86.0" y="170.0"/>
      <point x="72.0" y="170.0" type="curve" smooth="yes"/>
      <point x="58.0" y="170.0"/>
      <point x="46.0" y="182.0"/>
      <point x="46.0" y="196.0" type="curve" smooth="yes"/>
      <point x="46.0" y="210.0"/>
      <point x="58.0" y="221.0"/>
      <point x="72.0" y="221.0" type="curve" smooth="yes"/>
      <point x="86.0" y="221.0"/>
      <point x="97.0" y="210.0"/>
    </contour>
    <contour>
      <point x="151.0" y="107.0" type="curve" smooth="yes"/>
      <point x="151.0" y="93.0"/>
      <point x="139.0" y="82.0"/>
      <point x="125.0" y="82.0" type="curve" smooth="yes"/>
      <point x="111.0" y="82.0"/>
      <point x="100.0" y="93.0"/>
      <point x="100.0" y="107.0" type="curve" smooth="yes"/>
      <point x="100.0" y="121.0"/>
      <point x="111.0" y="133.0"/>
      <point x="125.0" y="133.0" type="curve" smooth="yes"/>
      <point x="139.0" y="133.0"/>
      <point x="151.0" y="121.0"/>
    </contour>
    <contour>
      <point x="234.0" y="47.0" type="curve" smooth="yes"/>
      <point x="234.0" y="33.0"/>
      <point x="223.0" y="21.0"/>
      <point x="209.0" y="21.0" type="curve" smooth="yes"/>
      <point x="195.0" y="21.0"/>
      <point x="183.0" y="33.0"/>
      <point x="183.0" y="47.0" type="curve" smooth="yes"/>
      <point x="183.0" y="61.0"/>
      <point x="195.0" y="72.0"/>
      <point x="209.0" y="72.0" type="curve" smooth="yes"/>
      <point x="223.0" y="72.0"/>
      <point x="234.0" y="61.0"/>
    </contour>
  </outline>
</glyph>
<glyph name="whiteBullet" format="2">
  <advance width="396.0"/>
  <unicode hex="25E6"/>
  <outline>
    <contour>
      <point x="198.0" y="232.0" type="curve" smooth="yes"/>
      <point x="276.0" y="232.0"/>
      <point x="331.0" y="293.0"/>
      <point x="331.0" y="363.0" type="curve" smooth="yes"/>
      <point x="331.0" y="435.0"/>
      <point x="276.0" y="494.0"/>
      <point x="198.0" y="494.0" type="curve" smooth="yes"/>
      <point x="120.0" y="494.0"/>
      <point x="65.0" y="433.0"/>
      <point x="65.0" y="363.0" type="curve" smooth="yes"/>
      <point x="65.0" y="291.0"/>
      <point x="120.0" y="232.0"/>
    </contour>
    <contour>
      <point x="198.0" y="298.0" type="curve" smooth="yes"/>
      <point x="163.0" y="298.0"/>
      <point x="134.0" y="327.0"/>
      <point x="134.0" y="363.0" type="curve" smooth="yes"/>
      <point x="134.0" y="395.0"/>
      <point x="163.0" y="428.0"/>
      <point x="198.0" y="428.0" type="curve" smooth="yes"/>
      <point x="233.0" y="428.0"/>
      <point x="262.0" y="399.0"/>
      <point x="262.0" y="363.0" type="curve" smooth="yes"/>
      <point x="262.0" y="331.0"/>
      <point x="233.0" y="298.0"/>
    </contour>
  </outline>
</glyph>
<glyph name="ae.ss01" format="2">
  <advance width="884.0"/>
  <anchor x="420.0" y="0.0" name="bottom"/>
  <anchor x="625.0" y="-13.0" name="ogonek"/>
  <anchor x="432.0" y="505.0" name="top"/>
  <outline>
    <contour>
      <point x="240.0" y="-13.0" type="curve" smooth="yes"/>
      <point x="330.0" y="-13.0"/>
      <point x="385.0" y="23.0"/>
      <point x="419.0" y="76.0" type="curve"/>
      <point x="424.0" y="76.0" type="line"/>
      <point x="452.0" y="23.0"/>
      <point x="537.0" y="-13.0"/>
      <point x="613.0" y="-13.0" type="curve" smooth="yes"/>
      <point x="699.0" y="-13.0"/>
      <point x="778.0" y="26.0"/>
      <point x="821.0" y="75.0" type="curve"/>
      <point x="732.0" y="165.0" type="line"/>
      <point x="706.0" y="129.0"/>
      <point x="658.0" y="107.0"/>
      <point x="608.0" y="107.0" type="curve" smooth="yes"/>
      <point x="531.0" y="107.0"/>
      <point x="477.0" y="174.0"/>
      <point x="483.0" y="239.0" type="curve"/>
      <point x="482.0" y="260.0" type="line"/>
      <point x="482.0" y="357.0"/>
      <point x="531.0" y="395.0"/>
      <point x="596.0" y="395.0" type="curve" smooth="yes"/>
      <point x="676.0" y="395.0"/>
      <point x="711.0" y="357.0"/>
      <point x="708.0" y="265.0" type="curve"/>
      <point x="748.0" y="316.0" type="line"/>
      <point x="459.0" y="316.0" type="line"/>
      <point x="482.0" y="216.0" type="line"/>
      <point x="840.0" y="216.0" type="line"/>
      <point x="843.0" y="225.0"/>
      <point x="844.0" y="245.0"/>
      <point x="844.0" y="262.0" type="curve" smooth="yes"/>
      <point x="844.0" y="416.0"/>
      <point x="746.0" y="518.0"/>
      <point x="598.0" y="518.0" type="curve" smooth="yes"/>
      <point x="527.0" y="518.0"/>
      <point x="469.0" y="493.0"/>
      <point x="432.0" y="455.0" type="curve"/>
      <point x="425.0" y="455.0" type="line"/>
      <point x="389.0" y="493.0"/>
      <point x="335.0" y="518.0"/>
      <point x="267.0" y="518.0" type="curve" smooth="yes"/>
      <point x="177.0" y="518.0"/>
      <point x="113.0" y="489.0"/>
      <point x="53.0" y="422.0" type="curve"/>
      <point x="142.0" y="337.0" type="line"/>
      <point x="176.0" y="378.0"/>
      <point x="215.0" y="395.0"/>
      <point x="271.0" y="395.0" type="curve" smooth="yes"/>
      <point x="331.0" y="395.0"/>
      <point x="363.0" y="362.0"/>
      <point x="363.0" y="333.0" type="curve" smooth="yes"/>
      <point x="363.0" y="285.0" type="line"/>
      <point x="388.0" y="318.0" type="line"/>
      <point x="318.0" y="315.0" type="line" smooth="yes"/>
      <point x="120.0" y="308.0"/>
      <point x="45.0" y="237.0"/>
      <point x="45.0" y="144.0" type="curve" smooth="yes"/>
      <point x="45.0" y="55.0"/>
      <point x="119.0" y="-13.0"/>
    </contour>
    <contour>
      <point x="248.0" y="107.0" type="curve" smooth="yes"/>
      <point x="204.0" y="107.0"/>
      <point x="174.0" y="124.0"/>
      <point x="174.0" y="155.0" type="curve" smooth="yes"/>
      <point x="174.0" y="197.0"/>
      <point x="246.0" y="211.0"/>
      <point x="331.0" y="214.0" type="curve" smooth="yes"/>
      <point x="388.0" y="216.0" type="line"/>
      <point x="363.0" y="250.0" type="line"/>
      <point x="363.0" y="210.0" type="line" smooth="yes"/>
      <point x="363.0" y="161.0"/>
      <point x="328.0" y="107.0"/>
    </contour>
  </outline>
</glyph>
<glyph name="breveinvertedcomb.case" format="2">
  <anchor x="0.0" y="700.0" name="_top"/>
  <anchor x="0.0" y="831.0" name="top"/>
  <outline>
    <contour>
      <point x="-150.0" y="737.0" type="curve"/>
      <point x="-56.0" y="737.0" type="line"/>
      <point x="-57.0" y="764.0"/>
      <point x="-28.0" y="785.0"/>
      <point x="0.0" y="785.0" type="curve" smooth="yes"/>
      <point x="28.0" y="785.0"/>
      <point x="57.0" y="764.0"/>
      <point x="56.0" y="737.0" type="curve"/>
      <point x="150.0" y="737.0" type="line"/>
      <point x="150.0" y="801.0"/>
      <point x="88.0" y="854.0"/>
      <point x="0.0" y="854.0" type="curve" smooth="yes"/>
      <point x="-89.0" y="854.0"/>
      <point x="-150.0" y="801.0"/>
    </contour>
  </outline>
</glyph>
<glyph name="c.ss10" format="2">
  <advance width="471.0"/>
  <anchor x="299.0" y="0.0" name="bottom"/>
  <anchor x="408.0" y="0.0" name="ogonek"/>
  <anchor x="299.0" y="505.0" name="top"/>
  <outline>
    <contour>
      <point x="319.0" y="-14.0" type="curve" smooth="yes"/>
      <point x="360.0" y="-14.0"/>
      <point x="399.0" y="-6.0"/>
      <point x="433.0" y="8.0" type="curve"/>
      <point x="438.0" y="156.0" type="line"/>
      <point x="408.0" y="127.0"/>
      <point x="369.0" y="113.0"/>
      <point x="319.0" y="113.0" type="curve" smooth="yes"/>
      <point x="251.0" y="113.0"/>
      <point x="175.0" y="165.0"/>
      <point x="175.0" y="254.0" type="curve" smooth="yes"/>
      <point x="175.0" y="341.0"/>
      <point x="251.0" y="391.0"/>
      <point x="319.0" y="391.0" type="curve" smooth="yes"/>
      <point x="369.0" y="391.0"/>
      <point x="412.0" y="373.0"/>
      <point x="433.0" y="355.0" type="curve"/>
      <point x="433.0" y="496.0" type="line"/>
      <point x="399.0" y="510.0"/>
      <point x="360.0" y="518.0"/>
      <point x="319.0" y="518.0" type="curve" smooth="yes"/>
      <point x="155.0" y="518.0"/>
      <point x="40.0" y="418.0"/>
      <point x="40.0" y="254.0" type="curve" smooth="yes"/>
      <point x="40.0" y="89.0"/>
      <point x="155.0" y="-14.0"/>
    </contour>
  </outline>
</glyph>
<glyph name="euro.tf" format="2">
  <advance width="596.0"/>
  <outline>
    <contour>
      <point x="366.0" y="27.0" type="curve" smooth="yes"/>
      <point x="473.0" y="27.0"/>
      <point x="553.0" y="64.0"/>
      <point x="606.0" y="128.0" type="curve"/>
      <point x="494.0" y="215.0" type="line"/>
      <point x="458.0" y="170.0"/>
      <point x="417.0" y="157.0"/>
      <point x="369.0" y="157.0" type="curve" smooth="yes"/>
      <point x="282.0" y="157.0"/>
      <point x="227.0" y="198.0"/>
      <point x="204.0" y="294.0" type="curve" smooth="yes"/>
      <point x="199.0" y="311.0" type="line"/>
      <point x="193.0" y="343.0"/>
      <point x="192.0" y="356.0"/>
      <point x="198.0" y="388.0" type="curve"/>
      <point x="204.0" y="406.0" type="line"/>
      <point x="228.0" y="502.0"/>
      <point x="282.0" y="543.0"/>
      <point x="366.0" y="543.0" type="curve" smooth="yes"/>
      <point x="409.0" y="543.0"/>
      <point x="466.0" y="531.0"/>
      <point x="508.0" y="487.0" type="curve"/>
      <point x="588.0" y="583.0" type="line"/>
      <point x="534.0" y="648.0"/>
      <point x="460.0" y="673.0"/>
      <point x="366.0" y="673.0" type="curve" smooth="yes"/>
      <point x="170.0" y="673.0"/>
      <point x="51.0" y="540.0"/>
      <point x="51.0" y="349.0" type="curve" smooth="yes"/>
      <point x="51.0" y="159.0"/>
      <point x="178.0" y="27.0"/>
    </contour>
    <contour>
      <point x="-46.0" y="237.0" type="line"/>
      <point x="353.0" y="237.0" type="line"/>
      <point x="400.0" y="322.0" type="line"/>
      <point x="12.0" y="322.0" type="line"/>
    </contour>
    <contour>
      <point x="-50.0" y="378.0" type="line"/>
      <point x="435.0" y="378.0" type="line"/>
      <point x="493.0" y="463.0" type="line"/>
      <point x="9.0" y="463.0" type="line"/>
    </contour>
  </outline>
</glyph>
<glyph name="f_i.ss11" format="2">
  <advance width="630.0"/>
  <anchor x="493.0" y="0.0" name="bottom_1"/>
  <anchor x="472.0" y="0.0" name="ogonek_1"/>
  <anchor x="493.0" y="505.0" name="top_1"/>
  <anchor x="372.0" y="0.0" name="caret_1"/>
  <outline>
    <contour>
      <point x="113.0" y="0.0" type="line"/>
      <point x="248.0" y="0.0" type="line"/>
      <point x="248.0" y="507.0" type="line" smooth="yes"/>
      <point x="248.0" y="562.0"/>
      <point x="279.0" y="595.0"/>
      <point x="337.0" y="595.0" type="curve" smooth="yes"/>
      <point x="395.0" y="595.0"/>
      <point x="425.0" y="561.0"/>
      <point x="425.0" y="504.0" type="curve"/>
      <point x="397.0" y="554.0" type="line"/>
      <point x="569.0" y="554.0" type="line"/>
      <point x="560.0" y="505.0" type="line"/>
      <point x="560.0" y="633.0"/>
      <point x="460.0" y="713.0"/>
      <point x="337.0" y="713.0" type="curve" smooth="yes"/>
      <point x="203.0" y="713.0"/>
      <point x="113.0" y="636.0"/>
      <point x="113.0" y="512.0" type="curve" smooth="yes"/>
    </contour>
    <contour>
      <point x="20.0" y="385.0" type="line"/>
      <point x="367.0" y="385.0" type="line"/>
      <point x="367.0" y="505.0" type="line"/>
      <point x="20.0" y="505.0" type="line"/>
    </contour>
    <component base="idotless" xOffset="355.0"/>
  </outline>
</glyph>
<glyph name="f_t" format="2">
  <advance width="804.0"/>
  <anchor x="180.0" y="0.0" name="bottom_1"/>
  <anchor x="279.0" y="700.0" name="top_1"/>
  <anchor x="599.0" y="293.0" name="bar_2"/>
  <anchor x="644.0" y="0.0" name="bottom_2"/>
  <anchor x="573.0" y="276.0" name="center_2"/>
  <anchor x="573.0" y="637.0" name="top_2"/>
  <anchor x="702.0" y="700.0" name="topright_2"/>
  <anchor x="392.0" y="0.0" name="caret_1"/>
  <outline>
    <contour>
      <point x="209.0" y="385.0" type="line"/>
      <point x="594.0" y="385.0" type="line"/>
      <point x="604.0" y="505.0" type="line"/>
      <point x="209.0" y="505.0" type="line"/>
    </contour>
    <component base="f"/>
    <component base="t" xOffset="392.0"/>
  </outline>
</glyph>
<glyph name="f_t.ss11" format="2">
  <advance width="686.0"/>
  <anchor x="367.0" y="0.0" name="caret_1"/>
  <outline>
    <contour>
      <point x="113.0" y="0.0" type="line"/>
      <point x="248.0" y="0.0" type="line"/>
      <point x="248.0" y="502.0" type="line" smooth="yes"/>
      <point x="248.0" y="560.0"/>
      <point x="279.0" y="590.0"/>
      <point x="337.0" y="590.0" type="curve" smooth="yes"/>
      <point x="392.0" y="590.0"/>
      <point x="421.0" y="563.0"/>
      <point x="421.0" y="510.0" type="curve" smooth="yes"/>
      <point x="421.0" y="0.0" type="line"/>
      <point x="556.0" y="0.0" type="line"/>
      <point x="556.0" y="498.0" type="line" smooth="yes"/>
      <point x="556.0" y="630.0"/>
      <point x="472.0" y="713.0"/>
      <point x="337.0" y="713.0" type="curve" smooth="yes"/>
      <point x="199.0" y="713.0"/>
      <point x="113.0" y="630.0"/>
      <point x="113.0" y="498.0" type="curve" smooth="yes"/>
    </contour>
    <contour>
      <point x="20.0" y="385.0" type="line"/>
      <point x="666.0" y="385.0" type="line"/>
      <point x="666.0" y="505.0" type="line"/>
      <point x="20.0" y="505.0" type="line"/>
    </contour>
  </outline>
</glyph>
<glyph name="hookabovecomb.case" format="2">
  <anchor x="0.0" y="700.0" name="_top"/>
  <anchor x="0.0" y="889.0" name="top"/>
  <outline>
    <contour>
      <point x="-42.0" y="737.0" type="curve"/>
      <point x="51.0" y="737.0" type="line"/>
      <point x="70.0" y="752.0"/>
      <point x="87.0" y="769.0"/>
      <point x="87.0" y="809.0" type="curve" smooth="yes"/>
      <point x="87.0" y="852.0"/>
      <point x="50.0" y="898.0"/>
      <point x="-22.0" y="898.0" type="curve" smooth="yes"/>
      <point x="-51.0" y="898.0"/>
      <point x="-80.0" y="887.0"/>
      <point x="-102.0" y="874.0" type="curve"/>
      <point x="-63.0" y="809.0" type="line"/>
      <point x="-55.0" y="814.0"/>
      <point x="-42.0" y="820.0"/>
      <point x="-27.0" y="820.0" type="curve" smooth="yes"/>
      <point x="-4.0" y="820.0"/>
      <point x="1.0" y="806.0"/>
      <point x="1.0" y="796.0" type="curve" smooth="yes"/>
      <point x="1.0" y="778.0"/>
      <point x="-13.0" y="761.0"/>
    </contour>
  </outline>
</glyph>
<glyph name="hookabovecombviet" format="2">
  <advance width="300.0"/>
  <anchor x="0.0" y="505.0" name="_top"/>
  <anchor x="0.0" y="705.0" name="top"/>
  <outline>
    <contour>
      <point x="-29.0" y="577.0" type="curve"/>
      <point x="0.0" y="532.0" type="line"/>
      <point x="40.0" y="548.0"/>
      <point x="65.0" y="576.0"/>
      <point x="65.0" y="619.0" type="curve" smooth="yes"/>
      <point x="65.0" y="669.0"/>
      <point x="31.0" y="721.0"/>
      <point x="-57.0" y="721.0" type="curve" smooth="yes"/>
      <point x="-86.0" y="721.0"/>
      <point x="-115.0" y="713.0"/>
      <point x="-137.0" y="700.0" type="curve"/>
      <point x="-92.0" y="625.0" type="line"/>
      <point x="-84.0" y="630.0"/>
      <point x="-71.0" y="636.0"/>
      <point x="-51.0" y="636.0" type="curve" smooth="yes"/>
      <point x="-23.0" y="636.0"/>
      <point x="-4.0" y="624.0"/>
      <point x="-4.0" y="607.0" type="curve" smooth="yes"/>
      <point x="-4.0" y="589.0"/>
      <point x="-16.0" y="580.0"/>
    </contour>
  </outline>
</glyph>
<glyph name="horn.alt_case" format="2">
  <advance width="600.0"/>
  <anchor x="180.0" y="700.0" name="_topright"/>
  <outline>
    <contour>
      <point x="143.0" y="602.0" type="line"/>
      <point x="269.0" y="595.0"/>
      <point x="343.0" y="658.0"/>
      <point x="343.0" y="749.0" type="curve" smooth="yes"/>
      <point x="343.0" y="770.0"/>
      <point x="338.0" y="799.0"/>
      <point x="333.0" y="814.0" type="curve"/>
      <point x="217.0" y="814.0" type="line"/>
      <point x="223.0" y="797.0"/>
      <point x="226.0" y="779.0"/>
      <point x="226.0" y="764.0" type="curve" smooth="yes"/>
      <point x="227.0" y="722.0"/>
      <point x="212.0" y="700.0"/>
      <point x="158.0" y="700.0" type="curve"/>
    </contour>
  </outline>
</glyph>
<glyph name="horncomb.case" format="2">
  <anchor x="180.0" y="700.0" name="_topright"/>
  <outline>
    <contour>
      <point x="203.0" y="595.0" type="curve" smooth="yes"/>
      <point x="269.0" y="595.0"/>
      <point x="343.0" y="658.0"/>
      <point x="343.0" y="749.0" type="curve" smooth="yes"/>
      <point x="343.0" y="770.0"/>
      <point x="338.0" y="799.0"/>
      <point x="333.0" y="814.0" type="curve"/>
      <point x="217.0" y="814.0" type="line"/>
      <point x="223.0" y="797.0"/>
      <point x="226.0" y="779.0"/>
      <point x="226.0" y="764.0" type="curve" smooth="yes"/>
      <point x="227.0" y="722.0"/>
      <point x="212.0" y="693.0"/>
      <point x="158.0" y="693.0" type="curve" smooth="yes"/>
      <point x="119.0" y="693.0"/>
      <point x="91.0" y="713.0"/>
      <point x="-26.0" y="713.0" type="curve"/>
      <point x="-39.0" y="617.0" type="line"/>
      <point x="121.0" y="617.0"/>
      <point x="116.0" y="595.0"/>
    </contour>
  </outline>
</glyph>
<glyph name="liraTurkish.tf" format="2">
  <advance width="596.0"/>
  <outline>
    <contour>
      <point x="49.0" y="287.0" type="line"/>
      <point x="516.0" y="387.0" type="line"/>
      <point x="516.0" y="477.0" type="line"/>
      <point x="49.0" y="377.0" type="line"/>
    </contour>
    <contour>
      <point x="49.0" y="433.0" type="line"/>
      <point x="516.0" y="533.0" type="line"/>
      <point x="516.0" y="617.0" type="line"/>
      <point x="49.0" y="522.0" type="line"/>
    </contour>
    <contour>
      <point x="114.0" y="30.0" type="line"/>
      <point x="251.0" y="30.0" type="line" smooth="yes"/>
      <point x="432.0" y="30.0"/>
      <point x="531.0" y="112.0"/>
      <point x="549.0" y="278.0" type="curve" smooth="yes"/>
      <point x="553.0" y="312.0" type="line"/>
      <point x="428.0" y="325.0" type="line"/>
      <point x="425.0" y="294.0" type="line" smooth="yes"/>
      <point x="415.0" y="210.0"/>
      <point x="357.0" y="165.0"/>
      <point x="291.0" y="165.0" type="curve" smooth="yes"/>
      <point x="254.0" y="165.0" type="line"/>
      <point x="254.0" y="670.0" type="line"/>
      <point x="114.0" y="670.0" type="line"/>
    </contour>
  </outline>
</glyph>
<glyph name="naira.tf" format="2">
  <advance width="596.0"/>
  <outline>
    <contour>
      <point x="57.0" y="30.0" type="line"/>
      <point x="187.0" y="30.0" type="line"/>
      <point x="187.0" y="318.0" type="line" smooth="yes"/>
      <point x="187.0" y="366.0"/>
      <point x="185.0" y="414.0"/>
      <point x="181.0" y="456.0" type="curve"/>
      <point x="184.0" y="456.0" type="line"/>
      <point x="191.0" y="435.0"/>
      <point x="207.0" y="398.0"/>
      <point x="221.0" y="374.0" type="curve" smooth="yes"/>
      <point x="429.0" y="30.0" type="line"/>
      <point x="539.0" y="30.0" type="line"/>
      <point x="539.0" y="670.0" type="line"/>
      <point x="409.0" y="670.0" type="line"/>
      <point x="409.0" y="388.0" type="line" smooth="yes"/>
      <point x="409.0" y="319.0"/>
      <point x="413.0" y="275.0"/>
      <point x="417.0" y="246.0" type="curve"/>
      <point x="413.0" y="246.0" type="line"/>
      <point x="406.0" y="268.0"/>
      <point x="396.0" y="307.0"/>
      <point x="381.0" y="333.0" type="curve" smooth="yes"/>
      <point x="182.0" y="670.0" type="line"/>
      <point x="57.0" y="670.0" type="line"/>
    </contour>
    <contour>
      <point x="7.0" y="317.0" type="line"/>
      <point x="589.0" y="317.0" type="line"/>
      <point x="589.0" y="402.0" type="line"/>
      <point x="7.0" y="402.0" type="line"/>
    </contour>
  </outline>
</glyph>
<glyph name="nine.numr" format="2">
  <advance width="344.0"/>
  <outline>
    <contour>
      <point x="70.0" y="313.0" type="line"/>
      <point x="167.0" y="313.0" type="line"/>
      <point x="277.0" y="477.0" type="line" smooth="yes"/>
      <point x="297.0" y="506.0"/>
      <point x="307.0" y="537.0"/>
      <point x="307.0" y="573.0" type="curve" smooth="yes"/>
      <point x="307.0" y="653.0"/>
      <point x="246.0" y="706.0"/>
      <point x="166.0" y="706.0" type="curve" smooth="yes"/>
      <point x="82.0" y="706.0"/>
      <point x="22.0" y="652.0"/>
      <point x="22.0" y="573.0" type="curve" smooth="yes"/>
      <point x="22.0" y="485.0"/>
      <point x="86.0" y="435.0"/>
      <point x="159.0" y="447.0" type="curve"/>
    </contour>
    <contour>
      <point x="164.0" y="513.0" type="curve" smooth="yes"/>
      <point x="144.0" y="513.0"/>
      <point x="108.0" y="529.0"/>
      <point x="108.0" y="573.0" type="curve" smooth="yes"/>
      <point x="108.0" y="608.0"/>
      <point x="134.0" y="628.0"/>
      <point x="166.0" y="628.0" type="curve" smooth="yes"/>
      <point x="199.0" y="628.0"/>
      <point x="220.0" y="606.0"/>
      <point x="220.0" y="573.0" type="curve" smooth="yes"/>
      <point x="220.0" y="538.0"/>
      <point x="199.0" y="513.0"/>
    </contour>
  </outline>
</glyph>
<glyph name="one.ss10.numr" format="2">
  <advance width="197.0"/>
  <outline>
    <contour>
      <point x="65.0" y="315.0" type="line"/>
      <point x="147.0" y="315.0" type="line"/>
      <point x="147.0" y="700.0" type="line"/>
      <point x="12.0" y="700.0" type="line"/>
      <point x="12.0" y="618.0" type="line"/>
      <point x="65.0" y="618.0" type="line"/>
      <point x="65.0" y="617.0" type="line"/>
    </contour>
  </outline>
</glyph>
<glyph name="ordfeminine.ss01" format="2">
  <advance width="465.0"/>
  <outline>
    <contour>
      <point x="58.0" y="157.0" type="line"/>
      <point x="400.0" y="157.0" type="line"/>
      <point x="400.0" y="256.0" type="line"/>
      <point x="58.0" y="256.0" type="line"/>
    </contour>
    <contour>
      <point x="182.0" y="311.0" type="curve" smooth="yes"/>
      <point x="243.0" y="311.0"/>
      <point x="272.0" y="340.0"/>
      <point x="286.0" y="369.0" type="curve"/>
      <point x="291.0" y="369.0" type="line"/>
      <point x="291.0" y="320.0" type="line"/>
      <point x="400.0" y="320.0" type="line"/>
      <point x="400.0" y="567.0" type="line" smooth="yes"/>
      <point x="400.0" y="646.0"/>
      <point x="337.0" y="713.0"/>
      <point x="234.0" y="713.0" type="curve" smooth="yes"/>
      <point x="142.0" y="713.0"/>
      <point x="93.0" y="684.0"/>
      <point x="55.0" y="640.0" type="curve"/>
      <point x="122.0" y="576.0" type="line"/>
      <point x="144.0" y="601.0"/>
      <point x="166.0" y="620.0"/>
      <point x="218.0" y="620.0" type="curve" smooth="yes"/>
      <point x="259.0" y="620.0"/>
      <point x="288.0" y="594.0"/>
      <point x="288.0" y="572.0" type="curve" smooth="yes"/>
      <point x="288.0" y="539.0" type="line"/>
      <point x="312.0" y="567.0" type="line"/>
      <point x="234.0" y="561.0" type="line" smooth="yes"/>
      <point x="95.0" y="550.0"/>
      <point x="49.0" y="502.0"/>
      <point x="49.0" y="429.0" type="curve" smooth="yes"/>
      <point x="49.0" y="362.0"/>
      <point x="102.0" y="311.0"/>
    </contour>
    <contour>
      <point x="214.0" y="405.0" type="curve" smooth="yes"/>
      <point x="181.0" y="405.0"/>
      <point x="157.0" y="416.0"/>
      <point x="157.0" y="440.0" type="curve" smooth="yes"/>
      <point x="157.0" y="478.0"/>
      <point x="201.0" y="485.0"/>
      <point x="244.0" y="488.0" type="curve" smooth="yes"/>
      <point x="312.0" y="493.0" type="line"/>
      <point x="288.0" y="518.0" type="line"/>
      <point x="288.0" y="479.0" type="line" smooth="yes"/>
      <point x="288.0" y="435.0"/>
      <point x="252.0" y="405.0"/>
    </contour>
  </outline>
</glyph>
<glyph name="rupee.tf" format="2">
  <advance width="596.0"/>
  <outline>
    <contour>
      <point x="427.0" y="17.0" type="curve" smooth="yes"/>
      <point x="484.0" y="17.0"/>
      <point x="571.0" y="58.0"/>
      <point x="571.0" y="163.0" type="curve" smooth="yes"/>
      <point x="571.0" y="300.0"/>
      <point x="429.0" y="282.0"/>
      <point x="429.0" y="367.0" type="curve" smooth="yes"/>
      <point x="429.0" y="391.0"/>
      <point x="444.0" y="402.0"/>
      <point x="463.0" y="402.0" type="curve" smooth="yes"/>
      <point x="478.0" y="402.0"/>
      <point x="491.0" y="388.0"/>
      <point x="497.0" y="362.0" type="curve"/>
      <point x="581.0" y="409.0" type="line"/>
      <point x="564.0" y="463.0"/>
      <point x="520.0" y="498.0"/>
      <point x="468.0" y="498.0" type="curve" smooth="yes"/>
      <point x="388.0" y="498.0"/>
      <point x="332.0" y="445.0"/>
      <point x="332.0" y="361.0" type="curve" smooth="yes"/>
      <point x="332.0" y="230.0"/>
      <point x="474.0" y="246.0"/>
      <point x="474.0" y="161.0" type="curve" smooth="yes"/>
      <point x="474.0" y="132.0"/>
      <point x="455.0" y="113.0"/>
      <point x="426.0" y="113.0" type="curve" smooth="yes"/>
      <point x="399.0" y="113.0"/>
      <point x="382.0" y="128.0"/>
      <point x="360.0" y="156.0" type="curve" smooth="yes"/>
      <point x="218.0" y="337.0" type="line"/>
      <point x="143.0" y="278.0" type="line"/>
      <point x="235.0" y="278.0"/>
      <point x="327.0" y="349.0"/>
      <point x="327.0" y="467.0" type="curve" smooth="yes"/>
      <point x="327.0" y="597.0"/>
      <point x="234.0" y="670.0"/>
      <point x="133.0" y="670.0" type="curve" smooth="yes"/>
      <point x="15.0" y="670.0" type="line"/>
      <point x="15.0" y="30.0" type="line"/>
      <point x="121.0" y="30.0" type="line"/>
      <point x="121.0" y="271.0" type="line"/>
      <point x="134.0" y="271.0" type="line"/>
      <point x="137.0" y="259.0"/>
      <point x="149.0" y="242.0"/>
      <point x="160.0" y="230.0" type="curve" smooth="yes"/>
      <point x="266.0" y="107.0" type="line" smooth="yes"/>
      <point x="318.0" y="47.0"/>
      <point x="350.0" y="17.0"/>
    </contour>
    <contour>
      <point x="121.0" y="369.0" type="line"/>
      <point x="121.0" y="567.0" type="line"/>
      <point x="131.0" y="567.0" type="line" smooth="yes"/>
      <point x="183.0" y="567.0"/>
      <point x="220.0" y="534.0"/>
      <point x="220.0" y="465.0" type="curve" smooth="yes"/>
      <point x="220.0" y="400.0"/>
      <point x="184.0" y="369.0"/>
      <point x="133.0" y="369.0" type="curve" smooth="yes"/>
    </contour>
  </outline>
</glyph>
<glyph name="zero.lf" format="2">
  <advance width="674.0"/>
  <outline>
    <contour>
      <point x="337.0" y="-13.0" type="curve" smooth="yes"/>
      <point x="498.0" y="-13.0"/>
      <point x="609.0" y="109.0"/>
      <point x="609.0" y="259.0" type="curve" smooth="yes"/>
      <point x="609.0" y="439.0" type="line" smooth="yes"/>
      <point x="609.0" y="589.0"/>
      <point x="498.0" y="711.0"/>
      <point x="337.0" y="711.0" type="curve" smooth="yes"/>
      <point x="176.0" y="711.0"/>
      <point x="65.0" y="589.0"/>
      <point x="65.0" y="439.0" type="curve" smooth="yes"/>
      <point x="65.0" y="259.0" type="line" smooth="yes"/>
      <point x="65.0" y="109.0"/>
      <point x="176.0" y="-13.0"/>
    </contour>
    <contour>
      <point x="337.0" y="117.0" type="curve" smooth="yes"/>
      <point x="251.0" y="117.0"/>
      <point x="210.0" y="184.0"/>
      <point x="210.0" y="275.0" type="curve" smooth="yes"/>
      <point x="210.0" y="422.0" type="line" smooth="yes"/>
      <point x="210.0" y="523.0"/>
      <point x="251.0" y="581.0"/>
      <point x="337.0" y="581.0" type="curve" smooth="yes"/>
      <point x="423.0" y="581.0"/>
      <point x="464.0" y="523.0"/>
      <point x="464.0" y="422.0" type="curve" smooth="yes"/>
      <point x="464.0" y="275.0" type="line" smooth="yes"/>
      <point x="464.0" y="184.0"/>
      <point x="423.0" y="117.0"/>
    </contour>
  </outline>
</glyph>
